<svg width="178" height="21" viewBox="0 0 178 21" fill="none" xmlns="http://www.w3.org/2000/svg">
<path d="M7.862 16.168C6.392 16.168 5.062 15.846 3.872 15.202C2.696 14.544 1.772 13.648 1.1 12.514C0.428 11.366 0.092 10.078 0.092 8.65C0.092 7.222 0.428 5.941 1.1 4.807C1.772 3.659 2.703 2.763 3.893 2.119C5.083 1.461 6.413 1.132 7.883 1.132C9.031 1.132 10.081 1.328 11.033 1.72C11.985 2.098 12.797 2.665 13.469 3.421L12.104 4.744C10.998 3.582 9.619 3.001 7.967 3.001C6.875 3.001 5.888 3.246 5.006 3.736C4.124 4.226 3.431 4.905 2.927 5.773C2.437 6.627 2.192 7.586 2.192 8.65C2.192 9.714 2.437 10.68 2.927 11.548C3.431 12.402 4.124 13.074 5.006 13.564C5.888 14.054 6.875 14.299 7.967 14.299C9.605 14.299 10.984 13.711 12.104 12.535L13.469 13.858C12.797 14.614 11.978 15.188 11.012 15.58C10.06 15.972 9.01 16.168 7.862 16.168ZM25.0891 4.87V16H23.0731V6.634H18.2851L18.1591 9.112C18.0891 10.61 17.9561 11.863 17.7601 12.871C17.5641 13.865 17.2421 14.663 16.7941 15.265C16.3461 15.867 15.7231 16.168 14.9251 16.168C14.5611 16.168 14.1481 16.105 13.6861 15.979L13.8121 14.278C13.9941 14.32 14.1621 14.341 14.3161 14.341C14.8761 14.341 15.2961 14.096 15.5761 13.606C15.8561 13.116 16.0381 12.535 16.1221 11.863C16.2061 11.191 16.2831 10.232 16.3531 8.986L16.5421 4.87H25.0891ZM32.9562 4.765C34.4962 4.765 35.6722 5.143 36.4842 5.899C37.3102 6.655 37.7232 7.782 37.7232 9.28V16H35.8122V14.53C35.4762 15.048 34.9932 15.447 34.3632 15.727C33.7472 15.993 33.0122 16.126 32.1582 16.126C30.9122 16.126 29.9112 15.825 29.1552 15.223C28.4132 14.621 28.0422 13.83 28.0422 12.85C28.0422 11.87 28.3992 11.086 29.1132 10.498C29.8272 9.896 30.9612 9.595 32.5152 9.595H35.7072V9.196C35.7072 8.328 35.4552 7.663 34.9512 7.201C34.4472 6.739 33.7052 6.508 32.7252 6.508C32.0672 6.508 31.4232 6.62 30.7932 6.844C30.1632 7.054 29.6312 7.341 29.1972 7.705L28.3572 6.193C28.9312 5.731 29.6172 5.381 30.4152 5.143C31.2132 4.891 32.0602 4.765 32.9562 4.765ZM32.4942 14.572C33.2642 14.572 33.9292 14.404 34.4892 14.068C35.0492 13.718 35.4552 13.228 35.7072 12.598V11.044H32.5992C30.8912 11.044 30.0372 11.618 30.0372 12.766C30.0372 13.326 30.2542 13.767 30.6882 14.089C31.1222 14.411 31.7242 14.572 32.4942 14.572ZM52.6724 14.236V18.583H50.7824V16H41.4794V18.583H39.5684V14.236H40.1564C40.8704 14.194 41.3604 13.69 41.6264 12.724C41.8924 11.758 42.0744 10.393 42.1724 8.629L42.3404 4.87H50.9714V14.236H52.6724ZM44.0204 8.776C43.9644 10.176 43.8454 11.338 43.6634 12.262C43.4954 13.172 43.1804 13.83 42.7184 14.236H48.9554V6.634H44.1254L44.0204 8.776ZM59.6247 11.296H57.3147V16H55.2987V4.87H57.3147V9.574H59.6667L63.2787 4.87H65.4417L61.2207 10.225L65.7357 16H63.3627L59.6247 11.296ZM67.8495 4.87H69.8655V12.976L76.6905 4.87H78.5175V16H76.5015V7.894L69.6975 16H67.8495V4.87ZM82.4305 4.87H84.4465V12.976L91.2715 4.87H93.0985V16H91.0825V7.894L84.2785 16H82.4305V4.87ZM87.6385 3.421C86.6025 3.421 85.7975 3.176 85.2235 2.686C84.6495 2.182 84.3555 1.461 84.3415 0.522999H85.7065C85.7205 1.041 85.8955 1.461 86.2315 1.783C86.5815 2.091 87.0435 2.245 87.6175 2.245C88.1915 2.245 88.6535 2.091 89.0035 1.783C89.3535 1.461 89.5355 1.041 89.5495 0.522999H90.9565C90.9425 1.461 90.6415 2.182 90.0535 2.686C89.4655 3.176 88.6605 3.421 87.6385 3.421ZM107.502 16.126C106.368 16.126 105.353 15.881 104.457 15.391C103.575 14.901 102.882 14.229 102.378 13.375C101.874 12.507 101.622 11.527 101.622 10.435C101.622 9.343 101.874 8.37 102.378 7.516C102.882 6.648 103.575 5.976 104.457 5.5C105.353 5.01 106.368 4.765 107.502 4.765C108.51 4.765 109.406 4.968 110.19 5.374C110.988 5.78 111.604 6.368 112.038 7.138L110.505 8.125C110.155 7.593 109.721 7.194 109.203 6.928C108.685 6.662 108.111 6.529 107.481 6.529C106.753 6.529 106.095 6.69 105.507 7.012C104.933 7.334 104.478 7.796 104.142 8.398C103.82 8.986 103.659 9.665 103.659 10.435C103.659 11.219 103.82 11.912 104.142 12.514C104.478 13.102 104.933 13.557 105.507 13.879C106.095 14.201 106.753 14.362 107.481 14.362C108.111 14.362 108.685 14.229 109.203 13.963C109.721 13.697 110.155 13.298 110.505 12.766L112.038 13.732C111.604 14.502 110.988 15.097 110.19 15.517C109.406 15.923 108.51 16.126 107.502 16.126ZM124.438 4.87L119.041 17.113C118.565 18.247 118.005 19.045 117.361 19.507C116.731 19.969 115.968 20.2 115.072 20.2C114.526 20.2 113.994 20.109 113.476 19.927C112.972 19.759 112.552 19.507 112.216 19.171L113.077 17.659C113.651 18.205 114.316 18.478 115.072 18.478C115.562 18.478 115.968 18.345 116.29 18.079C116.626 17.827 116.927 17.386 117.193 16.756L117.55 15.979L112.636 4.87H114.736L118.621 13.774L122.464 4.87H124.438ZM126.502 4.87H128.518V9.595H134.86V4.87H136.876V16H134.86V11.338H128.518V16H126.502V4.87ZM152.115 14.236V18.583H150.225V16H140.922V18.583H139.011V14.236H139.599C140.313 14.194 140.803 13.69 141.069 12.724C141.335 11.758 141.517 10.393 141.615 8.629L141.783 4.87H150.414V14.236H152.115ZM143.463 8.776C143.407 10.176 143.288 11.338 143.106 12.262C142.938 13.172 142.623 13.83 142.161 14.236H148.398V6.634H143.568L143.463 8.776ZM164.674 4.87L159.277 17.113C158.801 18.247 158.241 19.045 157.597 19.507C156.967 19.969 156.204 20.2 155.308 20.2C154.762 20.2 154.23 20.109 153.712 19.927C153.208 19.759 152.788 19.507 152.452 19.171L153.313 17.659C153.887 18.205 154.552 18.478 155.308 18.478C155.798 18.478 156.204 18.345 156.526 18.079C156.862 17.827 157.163 17.386 157.429 16.756L157.786 15.979L152.872 4.87H154.972L158.857 13.774L162.7 4.87H164.674ZM171.064 11.296H168.754V16H166.738V4.87H168.754V9.574H171.106L174.718 4.87H176.881L172.66 10.225L177.175 16H174.802L171.064 11.296Z" fill="white"/>
</svg>
